<svg width="276" height="98" viewBox="0 0 276 98" fill="none" xmlns="http://www.w3.org/2000/svg">
<g clip-path="url(#clip0_55_10759)">
<path d="M36.3443 0C36.4118 0.0747671 62.383 28.8708 53.0113 50.4229C55.4231 45.6154 59.7791 36.2377 59.942 29.4463C70.8319 38.5221 73.0284 53.6654 71.6392 67.1611C70.3382 79.7954 57.8648 92.6006 47.4361 94.5391C47.436 87.0227 47.4364 70.7631 47.4341 65.5273C47.4341 65.0838 47.2138 64.6692 46.8462 64.4209C46.4786 64.1725 46.0108 64.1223 45.5992 64.2881C43.2899 65.1645 40.6596 65.9005 37.7564 66.4863V61.3662C41.3187 60.6615 44.008 57.5167 44.0084 53.749C44.0084 48.7101 36.2843 36.9699 36.2437 36.9082C36.1832 37.0001 28.4791 48.7167 28.4791 53.749C28.4794 57.6576 31.3739 60.8955 35.1343 61.4346V66.9619C32.6267 67.3695 29.9441 67.6754 27.1138 67.874C26.2372 67.9352 25.4921 68.5386 25.2505 69.3838L24.1822 73.124C24.3819 73.3738 24.4478 73.705 24.3599 74.0127L25.3902 75.2998C25.5615 75.5143 25.6548 75.7811 25.6548 76.0557V94.7266C14.9908 93.7953 1.40093 82.6039 0.24371 67.1611C-0.769537 53.6324 1.05148 38.5221 11.941 29.4463C11.3358 41.5468 16.3173 48.8694 17.5875 51.4297C8.93437 32.5136 36.2226 0.144245 36.3443 0ZM36.1441 51.4287C36.1441 51.4287 38.765 55.9464 38.7652 57.8828C38.7652 59.3298 37.5911 60.5047 36.1441 60.5049C34.697 60.5049 33.522 59.3299 33.522 57.8828C33.5222 55.9464 36.1441 51.4287 36.1441 51.4287ZM53.0113 50.4229C52.4151 51.6113 51.9383 52.5214 51.6724 53.043C52.1815 52.1838 52.6259 51.309 53.0113 50.4229ZM59.1099 8.91016C59.7416 10.6951 61.1463 12.0998 62.9312 12.7314C64.441 13.2657 65.9937 13.8145 65.9937 13.8145C65.9937 13.8145 64.441 14.3642 62.9312 14.8984C61.1464 15.5301 59.7416 16.9339 59.1099 18.7188C58.5783 20.2212 58.0322 21.7663 58.0269 21.7812C58.0269 21.7812 57.4772 20.2286 56.9429 18.7188C56.3112 16.9341 54.9073 15.5301 53.1226 14.8984C51.6128 14.3642 50.0601 13.8145 50.0601 13.8145C50.0683 13.8115 51.6168 13.2643 53.1226 12.7314C54.9075 12.0997 56.3113 10.695 56.9429 8.91016C57.4729 7.41237 58.0183 5.87295 58.0269 5.84863C58.0371 5.87736 58.5807 7.41463 59.1099 8.91016Z" fill="#FD9F26"/>
<path d="M122.495 19.7888C122.521 19.107 122.319 18.5729 121.887 18.1866C121.459 17.8002 120.859 17.607 120.086 17.607C119.548 17.607 119.056 17.7017 118.609 17.8911C118.165 18.0767 117.8 18.3324 117.512 18.6582C117.228 18.9839 117.052 19.3551 116.984 19.7718C116.934 20.0786 116.957 20.3476 117.052 20.5786C117.146 20.8059 117.292 21.0029 117.489 21.1695C117.686 21.3362 117.912 21.4782 118.165 21.5957C118.423 21.7131 118.684 21.8116 118.95 21.8911L120.126 22.2434C120.474 22.3457 120.821 22.4763 121.165 22.6354C121.51 22.7945 121.817 22.9934 122.086 23.232C122.355 23.4707 122.554 23.7642 122.682 24.1127C122.815 24.4612 122.842 24.8779 122.762 25.3627C122.656 25.9915 122.402 26.554 122.001 27.0502C121.603 27.5426 121.08 27.9328 120.432 28.2207C119.785 28.5085 119.037 28.6525 118.188 28.6525C117.396 28.6525 116.73 28.5218 116.188 28.2604C115.646 27.9953 115.247 27.6297 114.989 27.1638C114.732 26.6979 114.633 26.1582 114.694 25.5445H115.785C115.743 26.0029 115.828 26.3911 116.04 26.7093C116.256 27.0275 116.563 27.2699 116.961 27.4366C117.362 27.5994 117.825 27.6809 118.347 27.6809C118.927 27.6809 119.459 27.5843 119.944 27.3911C120.429 27.1941 120.828 26.9214 121.143 26.5729C121.461 26.2207 121.658 25.8116 121.734 25.3457C121.802 24.9517 121.754 24.6203 121.592 24.3513C121.432 24.0824 121.184 23.857 120.847 23.6752C120.514 23.4896 120.116 23.3267 119.654 23.1866L118.325 22.7775C117.457 22.5123 116.811 22.1392 116.387 21.6582C115.967 21.1771 115.817 20.5635 115.938 19.8172C116.044 19.1885 116.304 18.6373 116.717 18.1638C117.133 17.6866 117.65 17.3154 118.268 17.0502C118.885 16.7851 119.552 16.6525 120.268 16.6525C120.991 16.6525 121.607 16.7869 122.114 17.0559C122.626 17.3248 123.004 17.696 123.251 18.1695C123.501 18.6392 123.593 19.179 123.529 19.7888H122.495ZM127.777 28.6354C126.963 28.6354 126.291 28.446 125.76 28.0672C125.23 27.6847 124.859 27.1563 124.647 26.482C124.434 25.804 124.402 25.0237 124.55 24.1411C124.698 23.2623 124.989 22.482 125.425 21.8002C125.861 21.1146 126.398 20.5786 127.039 20.1922C127.679 19.8021 128.374 19.607 129.124 19.607C129.597 19.607 130.041 19.6941 130.453 19.8684C130.866 20.0388 131.217 20.3021 131.505 20.6582C131.796 21.0104 131.999 21.4555 132.112 21.9934C132.226 22.5275 132.222 23.1601 132.101 23.8911L132.022 24.3911H125.203L125.345 23.4991H131.135C131.23 22.9385 131.203 22.4347 131.056 21.9877C130.908 21.5407 130.656 21.1866 130.3 20.9252C129.948 20.6601 129.51 20.5275 128.987 20.5275C128.453 20.5275 127.948 20.6771 127.47 20.9763C126.997 21.2756 126.595 21.6657 126.266 22.1468C125.94 22.6241 125.73 23.1335 125.635 23.6752L125.522 24.3457C125.4 25.0843 125.416 25.7036 125.567 26.2036C125.719 26.6998 125.993 27.0748 126.391 27.3286C126.789 27.5824 127.298 27.7093 127.919 27.7093C128.336 27.7093 128.713 27.6449 129.05 27.5161C129.387 27.3873 129.681 27.215 129.931 26.9991C130.181 26.7794 130.381 26.5388 130.533 26.2775L131.436 26.59C131.243 26.9574 130.97 27.2964 130.618 27.607C130.27 27.9176 129.855 28.1676 129.374 28.357C128.897 28.5426 128.364 28.6354 127.777 28.6354ZM139.345 25.1184L140.248 19.7263H141.26L139.805 28.4536H138.794L139.033 27.0047H138.959C138.686 27.4517 138.3 27.8248 137.8 28.1241C137.303 28.4195 136.735 28.5672 136.095 28.5672C135.538 28.5672 135.063 28.446 134.669 28.2036C134.279 27.9574 134 27.5976 133.834 27.1241C133.667 26.6506 133.64 26.0691 133.754 25.3797L134.703 19.7263H135.714L134.783 25.3172C134.673 25.9991 134.783 26.5483 135.112 26.965C135.445 27.3779 135.926 27.5843 136.555 27.5843C136.949 27.5843 137.343 27.4896 137.737 27.3002C138.135 27.1108 138.48 26.8343 138.771 26.4707C139.067 26.1032 139.258 25.6525 139.345 25.1184ZM149.848 28.6354C149.034 28.6354 148.362 28.446 147.831 28.0672C147.301 27.6847 146.93 27.1563 146.718 26.482C146.506 25.804 146.473 25.0237 146.621 24.1411C146.769 23.2623 147.061 22.482 147.496 21.8002C147.932 21.1146 148.47 20.5786 149.11 20.1922C149.75 19.8021 150.445 19.607 151.195 19.607C151.669 19.607 152.112 19.6941 152.525 19.8684C152.938 20.0388 153.288 20.3021 153.576 20.6582C153.867 21.0104 154.07 21.4555 154.184 21.9934C154.297 22.5275 154.294 23.1601 154.172 23.8911L154.093 24.3911H147.275L147.417 23.4991H153.206C153.301 22.9385 153.275 22.4347 153.127 21.9877C152.979 21.5407 152.727 21.1866 152.371 20.9252C152.019 20.6601 151.581 20.5275 151.059 20.5275C150.525 20.5275 150.019 20.6771 149.542 20.9763C149.068 21.2756 148.667 21.6657 148.337 22.1468C148.011 22.6241 147.801 23.1335 147.706 23.6752L147.593 24.3457C147.472 25.0843 147.487 25.7036 147.638 26.2036C147.79 26.6998 148.064 27.0748 148.462 27.3286C148.86 27.5824 149.369 27.7093 149.991 27.7093C150.407 27.7093 150.784 27.6449 151.121 27.5161C151.458 27.3873 151.752 27.215 152.002 26.9991C152.252 26.7794 152.453 26.5388 152.604 26.2775L153.508 26.59C153.314 26.9574 153.042 27.2964 152.689 27.607C152.341 27.9176 151.926 28.1676 151.445 28.357C150.968 28.5426 150.436 28.6354 149.848 28.6354ZM162.32 21.6411L161.348 21.8911C161.299 21.6297 161.208 21.3949 161.075 21.1866C160.947 20.9744 160.759 20.8078 160.513 20.6866C160.27 20.5616 159.952 20.4991 159.558 20.4991C158.967 20.4991 158.458 20.643 158.03 20.9309C157.602 21.215 157.352 21.5786 157.28 22.0218C157.219 22.393 157.297 22.6941 157.513 22.9252C157.733 23.1563 158.1 23.3381 158.615 23.4707L159.888 23.7945C160.592 23.9763 161.094 24.2604 161.394 24.6468C161.697 25.0332 161.801 25.5218 161.706 26.1127C161.623 26.6051 161.413 27.0407 161.075 27.4195C160.742 27.7983 160.314 28.0957 159.791 28.3116C159.272 28.5275 158.693 28.6354 158.053 28.6354C157.193 28.6354 156.517 28.4422 156.024 28.0559C155.536 27.6695 155.274 27.1127 155.24 26.3854L156.257 26.1582C156.288 26.6733 156.464 27.0635 156.786 27.3286C157.111 27.5938 157.57 27.7263 158.161 27.7263C158.835 27.7263 159.401 27.5729 159.859 27.2661C160.318 26.9593 160.581 26.5805 160.649 26.1297C160.714 25.7737 160.647 25.4782 160.45 25.2434C160.257 25.0085 159.928 24.8343 159.462 24.7207L158.104 24.3797C157.373 24.1941 156.856 23.9044 156.553 23.5104C156.253 23.1127 156.153 22.6222 156.252 22.0388C156.331 21.5578 156.532 21.1354 156.854 20.7718C157.176 20.4082 157.583 20.1241 158.075 19.9195C158.568 19.7112 159.106 19.607 159.689 19.607C160.492 19.607 161.104 19.7888 161.524 20.1525C161.945 20.5123 162.21 21.0085 162.32 21.6411ZM168.095 19.7263L167.953 20.607H163.782L163.93 19.7263H168.095ZM165.572 17.6354H166.589L165.169 26.1752C165.108 26.5388 165.123 26.8248 165.214 27.0332C165.305 27.2377 165.445 27.3835 165.635 27.4707C165.824 27.554 166.032 27.5957 166.26 27.5957C166.392 27.5957 166.506 27.5881 166.601 27.5729C166.699 27.554 166.786 27.5351 166.862 27.5161L166.936 28.4309C166.826 28.4688 166.695 28.5029 166.544 28.5332C166.392 28.5672 166.21 28.5843 165.998 28.5843C165.627 28.5843 165.284 28.5029 164.97 28.34C164.655 28.1771 164.417 27.9347 164.254 27.6127C164.091 27.2907 164.048 26.8911 164.123 26.4138L165.572 17.6354ZM171.955 28.6354C171.19 28.6354 170.546 28.4422 170.023 28.0559C169.501 27.6657 169.131 27.126 168.915 26.4366C168.7 25.7472 168.664 24.9517 168.808 24.0502C168.951 23.1714 169.237 22.3987 169.665 21.732C170.097 21.0616 170.628 20.5407 171.256 20.1695C171.885 19.7945 172.569 19.607 173.308 19.607C174.076 19.607 174.72 19.8021 175.239 20.1922C175.762 20.5824 176.131 21.1222 176.347 21.8116C176.567 22.501 176.605 23.2983 176.461 24.2036C176.317 25.0786 176.029 25.8494 175.597 26.5161C175.165 27.179 174.635 27.6979 174.006 28.0729C173.381 28.4479 172.698 28.6354 171.955 28.6354ZM171.967 27.7093C172.588 27.7093 173.141 27.5445 173.626 27.215C174.114 26.8816 174.518 26.4385 174.836 25.8854C175.154 25.3286 175.368 24.7169 175.478 24.0502C175.58 23.4138 175.569 22.8286 175.444 22.2945C175.319 21.7604 175.078 21.3324 174.722 21.0104C174.366 20.6885 173.893 20.5275 173.302 20.5275C172.684 20.5275 172.131 20.696 171.643 21.0332C171.154 21.3665 170.751 21.8135 170.433 22.3741C170.114 22.9309 169.902 23.5407 169.796 24.2036C169.69 24.8438 169.698 25.429 169.819 25.9593C169.944 26.4896 170.184 26.9138 170.54 27.232C170.9 27.5502 171.376 27.7093 171.967 27.7093ZM183.026 31.7263L183.833 26.8343H183.742C183.583 27.0994 183.371 27.3722 183.105 27.6525C182.844 27.929 182.52 28.1619 182.134 28.3513C181.747 28.5407 181.291 28.6354 180.765 28.6354C180.052 28.6354 179.458 28.446 178.98 28.0672C178.503 27.6885 178.17 27.1601 177.98 26.482C177.795 25.804 177.776 25.0142 177.924 24.1127C178.071 23.215 178.35 22.429 178.759 21.7547C179.172 21.0767 179.679 20.5502 180.282 20.1752C180.888 19.7964 181.551 19.607 182.27 19.607C182.804 19.607 183.23 19.7017 183.549 19.8911C183.871 20.0805 184.115 20.3135 184.282 20.59C184.448 20.8627 184.568 21.1297 184.64 21.3911H184.759L185.043 19.7263H186.032L184.043 31.7263H183.026ZM181.032 27.7093C181.6 27.7093 182.107 27.5559 182.554 27.2491C183.005 26.9385 183.38 26.5123 183.679 25.9707C183.979 25.4252 184.187 24.8002 184.304 24.0957C184.418 23.3987 184.414 22.7832 184.293 22.2491C184.176 21.7112 183.944 21.2907 183.6 20.9877C183.255 20.6809 182.797 20.5275 182.225 20.5275C181.641 20.5275 181.122 20.6866 180.668 21.0047C180.217 21.3191 179.844 21.7453 179.549 22.2832C179.253 22.821 179.051 23.4252 178.941 24.0957C178.827 24.7737 178.829 25.3854 178.946 25.9309C179.068 26.4763 179.301 26.9101 179.645 27.232C179.994 27.5502 180.456 27.7093 181.032 27.7093ZM193.027 25.1184L193.93 19.7263H194.942L193.487 28.4536H192.476L192.714 27.0047H192.641C192.368 27.4517 191.981 27.8248 191.481 28.1241C190.985 28.4195 190.417 28.5672 189.777 28.5672C189.22 28.5672 188.745 28.446 188.351 28.2036C187.961 27.9574 187.682 27.5976 187.516 27.1241C187.349 26.6506 187.322 26.0691 187.436 25.3797L188.385 19.7263H189.396L188.464 25.3172C188.355 25.9991 188.464 26.5483 188.794 26.965C189.127 27.3779 189.608 27.5843 190.237 27.5843C190.631 27.5843 191.025 27.4896 191.419 27.3002C191.817 27.1108 192.161 26.8343 192.453 26.4707C192.749 26.1032 192.94 25.6525 193.027 25.1184ZM199.35 28.6354C198.536 28.6354 197.864 28.446 197.333 28.0672C196.803 27.6847 196.432 27.1563 196.22 26.482C196.008 25.804 195.975 25.0237 196.123 24.1411C196.271 23.2623 196.562 22.482 196.998 21.8002C197.434 21.1146 197.972 20.5786 198.612 20.1922C199.252 19.8021 199.947 19.607 200.697 19.607C201.17 19.607 201.614 19.6941 202.027 19.8684C202.439 20.0388 202.79 20.3021 203.078 20.6582C203.369 21.0104 203.572 21.4555 203.686 21.9934C203.799 22.5275 203.795 23.1601 203.674 23.8911L203.595 24.3911H196.777L196.919 23.4991H202.708C202.803 22.9385 202.777 22.4347 202.629 21.9877C202.481 21.5407 202.229 21.1866 201.873 20.9252C201.521 20.6601 201.083 20.5275 200.561 20.5275C200.027 20.5275 199.521 20.6771 199.044 20.9763C198.57 21.2756 198.169 21.6657 197.839 22.1468C197.513 22.6241 197.303 23.1335 197.208 23.6752L197.095 24.3457C196.973 25.0843 196.989 25.7036 197.14 26.2036C197.292 26.6998 197.566 27.0748 197.964 27.3286C198.362 27.5824 198.871 27.7093 199.492 27.7093C199.909 27.7093 200.286 27.6449 200.623 27.5161C200.96 27.3873 201.254 27.215 201.504 26.9991C201.754 26.7794 201.955 26.5388 202.106 26.2775L203.009 26.59C202.816 26.9574 202.544 27.2964 202.191 27.607C201.843 27.9176 201.428 28.1676 200.947 28.357C200.47 28.5426 199.937 28.6354 199.35 28.6354ZM207.14 25.1184L207.197 24.7661C207.303 24.1714 207.45 23.6885 207.64 23.3172C207.833 22.946 208.075 22.6335 208.367 22.3797C208.659 22.1222 209.007 21.876 209.412 21.6411C209.712 21.4631 209.975 21.2775 210.202 21.0843C210.433 20.8911 210.621 20.6752 210.765 20.4366C210.912 20.1979 211.009 19.9214 211.055 19.607C211.119 19.1941 211.083 18.8362 210.947 18.5332C210.81 18.2263 210.596 17.9896 210.305 17.8229C210.017 17.6525 209.674 17.5672 209.276 17.5672C208.89 17.5672 208.517 17.6525 208.157 17.8229C207.797 17.9896 207.486 18.2339 207.225 18.5559C206.964 18.8779 206.786 19.268 206.691 19.7263H205.617C205.738 19.1013 205.983 18.5597 206.35 18.1013C206.721 17.6392 207.17 17.2832 207.697 17.0332C208.227 16.7832 208.793 16.6582 209.395 16.6582C210.028 16.6582 210.56 16.7888 210.992 17.0502C211.428 17.3116 211.74 17.6695 211.93 18.1241C212.123 18.5748 212.174 19.0843 212.083 19.6525C212.019 20.0616 211.899 20.4233 211.725 20.7377C211.551 21.0483 211.322 21.3305 211.037 21.5843C210.753 21.8381 210.412 22.0805 210.015 22.3116C209.64 22.5313 209.333 22.7529 209.094 22.9763C208.859 23.196 208.674 23.4479 208.537 23.732C208.405 24.0123 208.303 24.357 208.231 24.7661L208.168 25.1184H207.14ZM207.242 28.5388C207.015 28.5388 206.823 28.4593 206.668 28.3002C206.517 28.1411 206.441 27.9479 206.441 27.7207C206.441 27.4934 206.524 27.3021 206.691 27.1468C206.858 26.9915 207.053 26.9138 207.276 26.9138C207.5 26.9138 207.691 26.9934 207.85 27.1525C208.009 27.3116 208.085 27.501 208.077 27.7207C208.073 27.8722 208.032 28.0104 207.952 28.1354C207.877 28.2566 207.776 28.3551 207.651 28.4309C207.53 28.5029 207.394 28.5388 207.242 28.5388Z" fill="white"/>
<path d="M231.651 66.7109H222.646V94.059H231.651V66.7109Z" fill="white"/>
<path d="M227.147 62.72C229.633 62.72 231.649 60.8308 231.649 58.5004C231.649 56.1699 229.633 54.2808 227.147 54.2808C224.66 54.2808 222.645 56.1699 222.645 58.5004C222.645 60.8308 224.66 62.72 227.147 62.72Z" fill="white"/>
<path d="M214.514 94.0583H205.993V90.1333H205.88C204.911 91.6637 203.7 92.8123 202.246 93.578C200.793 94.3438 199.145 94.7267 197.302 94.7267C194.775 94.7267 192.605 94.0014 190.79 92.5498C188.976 91.0992 188.069 89.0645 188.069 86.4468C188.069 83.9187 188.967 81.8534 190.762 80.2508C192.557 78.6493 195.364 77.6068 199.182 77.1265L206.05 76.2722V75.7373C206.05 74.4377 205.604 73.4543 204.712 72.787C203.819 72.1186 202.584 71.7849 201.007 71.7849C199.809 71.7849 198.475 71.972 197.003 72.3461C195.53 72.7202 194.035 73.3164 192.514 74.1358L189.465 69.1409C191.46 68.0547 193.441 67.267 195.406 66.7769C197.373 66.288 199.515 66.043 201.833 66.043C206.183 66.043 209.385 67.0132 211.436 68.9538C213.488 70.8945 214.514 73.8153 214.514 77.714V94.0583ZM206.05 82.9484V81.1062L200.75 81.7473C199.287 81.9245 198.19 82.3391 197.458 82.9889C196.728 83.6387 196.361 84.4624 196.361 85.459C196.361 86.4205 196.717 87.2082 197.43 87.8229C198.142 88.4366 199.107 88.744 200.323 88.744C202.013 88.744 203.39 88.1971 204.455 87.102C205.518 86.007 206.05 84.6221 206.05 82.9484Z" fill="white"/>
<path d="M182.172 53.5713H173.167V94.0595H182.172V53.5713Z" fill="white"/>
<path d="M164.42 82.7887H145.385C145.536 84.7643 146.244 86.2335 147.508 87.1951C148.771 88.1566 150.513 88.6368 152.737 88.6368C153.573 88.6368 154.727 88.4016 156.199 87.929C157.671 87.4576 159.101 86.7148 160.487 85.6997L164.477 90.4801C162.482 91.958 160.43 93.0355 158.322 93.7115C156.213 94.3887 153.886 94.7267 151.34 94.7267C146.629 94.7267 142.972 93.5026 140.369 91.0544C137.766 88.6062 136.465 85.1921 136.465 80.812C136.465 76.4494 137.842 72.8974 140.597 70.1561C143.351 67.4136 146.838 66.043 151.055 66.043C155.102 66.043 158.341 67.1872 160.772 69.4746C163.205 71.763 164.42 75.0875 164.42 79.4501V82.7887ZM156.071 77.6068C156.071 75.489 155.648 73.9794 154.803 73.0802C153.957 72.1809 152.689 71.7313 150.998 71.7313C149.554 71.7313 148.305 72.2564 147.251 73.3077C146.197 74.3579 145.555 75.7909 145.328 77.6068H156.071Z" fill="white"/>
<path fill-rule="evenodd" clip-rule="evenodd" d="M94.4365 72.3775C100.136 72.4008 105.881 81.9936 111.011 94.0138H120.68C129.412 73.8221 141.595 52.2205 152.25 45.5632L151.658 44.4536C134.591 50.9246 124.806 66.7012 115.944 83.658C108.446 69.9734 105.289 62.7613 94.4365 72.3775Z" fill="white"/>
</g>
<defs>
<clipPath id="clip0_55_10759">
<rect width="237.075" height="94.7266" fill="white"/>
</clipPath>
</defs>
</svg>
